<mxfile host="app.diagrams.net" modified="2024-05-01T17:17:10.990Z" agent="Mozilla/5.0 (Windows NT 10.0; Win64; x64) AppleWebKit/537.36 (KHTML, like Gecko) Chrome/124.0.0.0 Safari/537.36" etag="ST4DbNLk8ax7_cqp3zKL" version="24.3.1" type="google" pages="3">
  <diagram name="ID 3.1" id="z88kIuc_BIODLQ6KIsPD">
    <mxGraphModel grid="1" page="1" gridSize="10" guides="1" tooltips="1" connect="1" arrows="1" fold="1" pageScale="1" pageWidth="827" pageHeight="1169" math="0" shadow="0">
      <root>
        <mxCell id="0" />
        <mxCell id="1" parent="0" />
        <mxCell id="9eBxYeqyI2t0_zf650n9-1" value="Chủ tạp hoá" style="swimlane;whiteSpace=wrap;html=1;fontSize=15;startSize=40;fillColor=#E6E6E6;" vertex="1" parent="1">
          <mxGeometry x="10" y="10" width="400" height="1000" as="geometry" />
        </mxCell>
        <mxCell id="9eBxYeqyI2t0_zf650n9-13" value="" style="ellipse;html=1;shape=startState;fillColor=#000000;strokeColor=#ff0000;fontSize=15;" vertex="1" parent="9eBxYeqyI2t0_zf650n9-1">
          <mxGeometry x="85" y="70" width="30" height="30" as="geometry" />
        </mxCell>
        <mxCell id="9eBxYeqyI2t0_zf650n9-14" value="" style="edgeStyle=orthogonalEdgeStyle;html=1;verticalAlign=bottom;endArrow=open;endSize=8;strokeColor=#ff0000;rounded=0;fontSize=15;" edge="1" parent="9eBxYeqyI2t0_zf650n9-1" source="9eBxYeqyI2t0_zf650n9-13">
          <mxGeometry relative="1" as="geometry">
            <mxPoint x="100" y="140" as="targetPoint" />
          </mxGeometry>
        </mxCell>
        <mxCell id="9eBxYeqyI2t0_zf650n9-17" value="Chọn &quot;Tạo thông &lt;br&gt;tin sản phẩm&quot;" style="rounded=1;whiteSpace=wrap;html=1;arcSize=40;fontColor=#000000;fillColor=#ffffc0;strokeColor=#ff0000;fontSize=15;" vertex="1" parent="9eBxYeqyI2t0_zf650n9-1">
          <mxGeometry x="15" y="140" width="170" height="40" as="geometry" />
        </mxCell>
        <mxCell id="9eBxYeqyI2t0_zf650n9-18" value="" style="edgeStyle=orthogonalEdgeStyle;html=1;verticalAlign=bottom;endArrow=open;endSize=8;strokeColor=#ff0000;rounded=0;fontSize=15;" edge="1" parent="9eBxYeqyI2t0_zf650n9-1" source="9eBxYeqyI2t0_zf650n9-17">
          <mxGeometry relative="1" as="geometry">
            <mxPoint x="100" y="220" as="targetPoint" />
          </mxGeometry>
        </mxCell>
        <mxCell id="9eBxYeqyI2t0_zf650n9-19" value="&lt;font style=&quot;font-size: 15px;&quot;&gt;Nhập?&lt;/font&gt;" style="rhombus;whiteSpace=wrap;html=1;fontColor=#000000;fillColor=#ffffc0;strokeColor=#ff0000;fontSize=15;" vertex="1" parent="9eBxYeqyI2t0_zf650n9-1">
          <mxGeometry x="60" y="220" width="80" height="40" as="geometry" />
        </mxCell>
        <mxCell id="9eBxYeqyI2t0_zf650n9-20" value="Không" style="edgeStyle=orthogonalEdgeStyle;html=1;align=left;verticalAlign=bottom;endArrow=open;endSize=8;strokeColor=#ff0000;rounded=0;fontSize=15;entryX=0;entryY=0.5;entryDx=0;entryDy=0;" edge="1" parent="9eBxYeqyI2t0_zf650n9-1" source="9eBxYeqyI2t0_zf650n9-19" target="9eBxYeqyI2t0_zf650n9-24">
          <mxGeometry x="-1" relative="1" as="geometry">
            <mxPoint x="240" y="240" as="targetPoint" />
          </mxGeometry>
        </mxCell>
        <mxCell id="9eBxYeqyI2t0_zf650n9-21" value="Có" style="edgeStyle=orthogonalEdgeStyle;html=1;align=left;verticalAlign=top;endArrow=open;endSize=8;strokeColor=#ff0000;rounded=0;fontSize=15;" edge="1" parent="9eBxYeqyI2t0_zf650n9-1" source="9eBxYeqyI2t0_zf650n9-19">
          <mxGeometry x="-1" relative="1" as="geometry">
            <mxPoint x="100" y="320" as="targetPoint" />
          </mxGeometry>
        </mxCell>
        <mxCell id="9eBxYeqyI2t0_zf650n9-22" value="Nhập tên &lt;br&gt;sản phẩm" style="rounded=1;whiteSpace=wrap;html=1;arcSize=40;fontColor=#000000;fillColor=#ffffc0;strokeColor=#ff0000;fontSize=15;" vertex="1" parent="9eBxYeqyI2t0_zf650n9-1">
          <mxGeometry x="15" y="320" width="170" height="40" as="geometry" />
        </mxCell>
        <mxCell id="9eBxYeqyI2t0_zf650n9-24" value="Quét mã &lt;br&gt;sản phẩm" style="rounded=1;whiteSpace=wrap;html=1;arcSize=40;fontColor=#000000;fillColor=#ffffc0;strokeColor=#ff0000;fontSize=15;" vertex="1" parent="9eBxYeqyI2t0_zf650n9-1">
          <mxGeometry x="260" y="220" width="120" height="40" as="geometry" />
        </mxCell>
        <mxCell id="hn4GBYcOYv5OI7Qw8IQw-15" value="Thêm ảnh sản phẩm từ điện thoại" style="rounded=1;whiteSpace=wrap;html=1;arcSize=40;fontColor=#000000;fillColor=#ffffc0;strokeColor=#ff0000;fontSize=15;" vertex="1" parent="9eBxYeqyI2t0_zf650n9-1">
          <mxGeometry x="15" y="520" width="170" height="40" as="geometry" />
        </mxCell>
        <mxCell id="hn4GBYcOYv5OI7Qw8IQw-17" value="Thêm ảnh?" style="rhombus;whiteSpace=wrap;html=1;fontColor=#000000;fillColor=#ffffc0;strokeColor=#ff0000;fontSize=15;" vertex="1" parent="9eBxYeqyI2t0_zf650n9-1">
          <mxGeometry x="55" y="420" width="90" height="50" as="geometry" />
        </mxCell>
        <mxCell id="hn4GBYcOYv5OI7Qw8IQw-18" value="Không có sẵn" style="edgeStyle=orthogonalEdgeStyle;html=1;align=left;verticalAlign=bottom;endArrow=open;endSize=8;strokeColor=#ff0000;rounded=0;fontSize=15;" edge="1" parent="9eBxYeqyI2t0_zf650n9-1" source="hn4GBYcOYv5OI7Qw8IQw-17" target="hn4GBYcOYv5OI7Qw8IQw-20">
          <mxGeometry x="-1" relative="1" as="geometry">
            <mxPoint x="240" y="440" as="targetPoint" />
          </mxGeometry>
        </mxCell>
        <mxCell id="hn4GBYcOYv5OI7Qw8IQw-19" value="Có sẵn ảnh&amp;nbsp;" style="edgeStyle=orthogonalEdgeStyle;html=1;align=left;verticalAlign=top;endArrow=open;endSize=8;strokeColor=#ff0000;rounded=0;fontSize=15;" edge="1" parent="9eBxYeqyI2t0_zf650n9-1" source="hn4GBYcOYv5OI7Qw8IQw-17">
          <mxGeometry x="-1" relative="1" as="geometry">
            <mxPoint x="100" y="520" as="targetPoint" />
          </mxGeometry>
        </mxCell>
        <mxCell id="hn4GBYcOYv5OI7Qw8IQw-20" value="Quét ảnh &lt;br&gt;sản phẩm" style="rounded=1;whiteSpace=wrap;html=1;arcSize=40;fontColor=#000000;fillColor=#ffffc0;strokeColor=#ff0000;fontSize=15;" vertex="1" parent="9eBxYeqyI2t0_zf650n9-1">
          <mxGeometry x="260" y="425" width="120" height="40" as="geometry" />
        </mxCell>
        <mxCell id="hn4GBYcOYv5OI7Qw8IQw-2" value="Nhập giá bán" style="rounded=1;whiteSpace=wrap;html=1;arcSize=40;fontColor=#000000;fillColor=#ffffc0;strokeColor=#ff0000;fontSize=15;" vertex="1" parent="9eBxYeqyI2t0_zf650n9-1">
          <mxGeometry x="15" y="630" width="170" height="40" as="geometry" />
        </mxCell>
        <mxCell id="hn4GBYcOYv5OI7Qw8IQw-3" value="Hợp lệ?" style="rhombus;whiteSpace=wrap;html=1;fontColor=#000000;fillColor=#ffffc0;strokeColor=#ff0000;fontSize=15;" vertex="1" parent="9eBxYeqyI2t0_zf650n9-1">
          <mxGeometry x="52.5" y="730" width="95" height="50" as="geometry" />
        </mxCell>
        <mxCell id="hn4GBYcOYv5OI7Qw8IQw-4" value="Không" style="edgeStyle=orthogonalEdgeStyle;html=1;align=left;verticalAlign=bottom;endArrow=open;endSize=8;strokeColor=#ff0000;rounded=0;fontSize=15;entryX=0.782;entryY=0.013;entryDx=0;entryDy=0;exitX=1;exitY=0.5;exitDx=0;exitDy=0;entryPerimeter=0;" edge="1" parent="9eBxYeqyI2t0_zf650n9-1" source="hn4GBYcOYv5OI7Qw8IQw-3" target="hn4GBYcOYv5OI7Qw8IQw-2">
          <mxGeometry x="-1" relative="1" as="geometry">
            <mxPoint x="120" y="630" as="targetPoint" />
            <Array as="points">
              <mxPoint x="210" y="755" />
              <mxPoint x="210" y="610" />
              <mxPoint x="148" y="610" />
            </Array>
          </mxGeometry>
        </mxCell>
        <mxCell id="9eBxYeqyI2t0_zf650n9-32" value="Có" style="edgeStyle=orthogonalEdgeStyle;html=1;align=left;verticalAlign=top;endArrow=open;endSize=8;strokeColor=#ff0000;rounded=0;entryX=0.5;entryY=0;entryDx=0;entryDy=0;fontSize=15;" edge="1" parent="9eBxYeqyI2t0_zf650n9-1">
          <mxGeometry x="-1" y="-4" relative="1" as="geometry">
            <mxPoint x="100" y="420" as="targetPoint" />
            <Array as="points">
              <mxPoint x="530" y="380" />
              <mxPoint x="100" y="380" />
            </Array>
            <mxPoint x="530.0114942528736" y="364.03404067197164" as="sourcePoint" />
            <mxPoint x="4" y="-4" as="offset" />
          </mxGeometry>
        </mxCell>
        <mxCell id="0fxrD8gJ0K2vshcF0o1G-3" value="" style="edgeStyle=orthogonalEdgeStyle;html=1;verticalAlign=bottom;endArrow=open;endSize=8;strokeColor=#ff0000;rounded=0;" edge="1" parent="9eBxYeqyI2t0_zf650n9-1">
          <mxGeometry relative="1" as="geometry">
            <mxPoint x="99.86" y="730" as="targetPoint" />
            <mxPoint x="99.86" y="670" as="sourcePoint" />
          </mxGeometry>
        </mxCell>
        <mxCell id="9eBxYeqyI2t0_zf650n9-7" value="Hệ thống" style="swimlane;whiteSpace=wrap;html=1;fontSize=15;startSize=40;fillColor=#E6E6E6;" vertex="1" parent="1">
          <mxGeometry x="410" y="10" width="470" height="990" as="geometry" />
        </mxCell>
        <mxCell id="9eBxYeqyI2t0_zf650n9-26" value="Điện thoại quét &lt;br&gt;lấy mã và đưa vào mục &lt;br&gt;“Danh sách sản phẩm”" style="rounded=1;whiteSpace=wrap;html=1;arcSize=40;fontColor=#000000;fillColor=#ffffc0;strokeColor=#ff0000;fontSize=15;" vertex="1" parent="9eBxYeqyI2t0_zf650n9-7">
          <mxGeometry x="32" y="212.5" width="195" height="55" as="geometry" />
        </mxCell>
        <mxCell id="9eBxYeqyI2t0_zf650n9-30" value="Có trong &lt;br style=&quot;font-size: 15px;&quot;&gt;hệ thống?" style="rhombus;whiteSpace=wrap;html=1;fontColor=#000000;fillColor=#ffffc0;strokeColor=#ff0000;fontSize=15;" vertex="1" parent="9eBxYeqyI2t0_zf650n9-7">
          <mxGeometry x="64.5" y="315" width="130" height="50" as="geometry" />
        </mxCell>
        <mxCell id="9eBxYeqyI2t0_zf650n9-31" value="Không" style="edgeStyle=orthogonalEdgeStyle;html=1;align=left;verticalAlign=bottom;endArrow=open;endSize=8;strokeColor=#ff0000;rounded=0;fontSize=15;" edge="1" parent="9eBxYeqyI2t0_zf650n9-7" source="9eBxYeqyI2t0_zf650n9-30" target="9eBxYeqyI2t0_zf650n9-37">
          <mxGeometry x="-1" relative="1" as="geometry">
            <mxPoint x="220" y="340" as="targetPoint" />
          </mxGeometry>
        </mxCell>
        <mxCell id="9eBxYeqyI2t0_zf650n9-37" value="Hiển thị thông báo &lt;br&gt;“Đã có thông tin sản phẩm. Kiểm tra lại”" style="rounded=1;whiteSpace=wrap;html=1;arcSize=40;fontColor=#000000;fillColor=#ffffc0;strokeColor=#ff0000;fontSize=15;" vertex="1" parent="9eBxYeqyI2t0_zf650n9-7">
          <mxGeometry x="265" y="307.5" width="175" height="65" as="geometry" />
        </mxCell>
        <mxCell id="hn4GBYcOYv5OI7Qw8IQw-21" value="Ảnh sản phẩm &lt;br&gt;đưa vào khung ảnh&amp;nbsp;" style="rounded=1;whiteSpace=wrap;html=1;arcSize=40;fontColor=#000000;fillColor=#ffffc0;strokeColor=#ff0000;fontSize=15;" vertex="1" parent="9eBxYeqyI2t0_zf650n9-7">
          <mxGeometry x="47" y="420" width="183" height="40" as="geometry" />
        </mxCell>
        <mxCell id="hn4GBYcOYv5OI7Qw8IQw-9" value="" style="ellipse;html=1;shape=endState;fillColor=#000000;strokeColor=#ff0000;fontSize=15;" vertex="1" parent="9eBxYeqyI2t0_zf650n9-7">
          <mxGeometry x="337.5" y="425" width="30" height="30" as="geometry" />
        </mxCell>
        <mxCell id="hn4GBYcOYv5OI7Qw8IQw-7" value="Hiển thị thông báo &lt;br&gt;“Có lỗi xảy ra”&amp;nbsp;" style="rounded=1;whiteSpace=wrap;html=1;arcSize=40;fontColor=#000000;fillColor=#ffffc0;strokeColor=#ff0000;fontSize=15;" vertex="1" parent="9eBxYeqyI2t0_zf650n9-7">
          <mxGeometry x="272.5" y="910" width="160" height="40" as="geometry" />
        </mxCell>
        <mxCell id="hn4GBYcOYv5OI7Qw8IQw-6" value="Lưu &lt;br&gt;thông tin sản phẩm" style="rounded=1;whiteSpace=wrap;html=1;arcSize=40;fontColor=#000000;fillColor=#ffffc0;strokeColor=#ff0000;fontSize=15;" vertex="1" parent="9eBxYeqyI2t0_zf650n9-7">
          <mxGeometry x="47" y="790" width="160" height="40" as="geometry" />
        </mxCell>
        <mxCell id="0fxrD8gJ0K2vshcF0o1G-8" value="Không" style="edgeStyle=orthogonalEdgeStyle;html=1;align=left;verticalAlign=top;endArrow=open;endSize=8;strokeColor=#ff0000;rounded=0;" edge="1" parent="9eBxYeqyI2t0_zf650n9-7" target="hn4GBYcOYv5OI7Qw8IQw-7">
          <mxGeometry x="-1" relative="1" as="geometry">
            <mxPoint x="352.06999999999994" y="900.02" as="targetPoint" />
            <mxPoint x="352.11347826086967" y="839.9982608695652" as="sourcePoint" />
          </mxGeometry>
        </mxCell>
        <mxCell id="0fxrD8gJ0K2vshcF0o1G-17" value="" style="edgeStyle=orthogonalEdgeStyle;html=1;verticalAlign=bottom;endArrow=open;endSize=8;strokeColor=#ff0000;rounded=0;exitX=0.5;exitY=1;exitDx=0;exitDy=0;" edge="1" parent="9eBxYeqyI2t0_zf650n9-7" source="9eBxYeqyI2t0_zf650n9-37">
          <mxGeometry relative="1" as="geometry">
            <mxPoint x="352.42999999999995" y="425" as="targetPoint" />
            <mxPoint x="352.42999999999995" y="365" as="sourcePoint" />
          </mxGeometry>
        </mxCell>
        <mxCell id="0fxrD8gJ0K2vshcF0o1G-42" value="" style="edgeStyle=orthogonalEdgeStyle;html=1;verticalAlign=bottom;endArrow=open;endSize=8;strokeColor=#ff0000;rounded=0;" edge="1" parent="9eBxYeqyI2t0_zf650n9-7">
          <mxGeometry relative="1" as="geometry">
            <mxPoint x="129.41999999999996" y="314.5" as="targetPoint" />
            <mxPoint x="129.41999999999996" y="267.5" as="sourcePoint" />
          </mxGeometry>
        </mxCell>
        <mxCell id="hn4GBYcOYv5OI7Qw8IQw-23" value="" style="edgeStyle=orthogonalEdgeStyle;html=1;align=left;verticalAlign=bottom;endArrow=open;endSize=8;strokeColor=#ff0000;rounded=0;entryX=0.012;entryY=0.254;entryDx=0;entryDy=0;entryPerimeter=0;fontSize=15;exitX=0.959;exitY=0.124;exitDx=0;exitDy=0;exitPerimeter=0;" edge="1" parent="1" source="hn4GBYcOYv5OI7Qw8IQw-20" target="hn4GBYcOYv5OI7Qw8IQw-21">
          <mxGeometry x="-1" relative="1" as="geometry">
            <mxPoint x="445" y="440" as="targetPoint" />
            <mxPoint x="400" y="440" as="sourcePoint" />
          </mxGeometry>
        </mxCell>
        <mxCell id="hn4GBYcOYv5OI7Qw8IQw-8" value="Thành công?" style="rhombus;whiteSpace=wrap;html=1;fontColor=#000000;fillColor=#ffffc0;strokeColor=#ff0000;fontSize=15;" vertex="1" parent="1">
          <mxGeometry x="707.5" y="790" width="110" height="60" as="geometry" />
        </mxCell>
        <mxCell id="hn4GBYcOYv5OI7Qw8IQw-26" value="" style="edgeStyle=orthogonalEdgeStyle;html=1;verticalAlign=bottom;endArrow=open;endSize=8;strokeColor=#ff0000;rounded=0;exitX=0.5;exitY=1;exitDx=0;exitDy=0;fontSize=15;" edge="1" parent="1" source="hn4GBYcOYv5OI7Qw8IQw-21">
          <mxGeometry relative="1" as="geometry">
            <mxPoint x="110" y="640" as="targetPoint" />
            <mxPoint x="528.75" y="470" as="sourcePoint" />
            <Array as="points">
              <mxPoint x="540" y="600" />
              <mxPoint x="110" y="600" />
            </Array>
          </mxGeometry>
        </mxCell>
        <mxCell id="hn4GBYcOYv5OI7Qw8IQw-14" value="" style="edgeStyle=orthogonalEdgeStyle;html=1;align=left;verticalAlign=top;endArrow=open;endSize=8;strokeColor=#ff0000;rounded=0;fontSize=15;exitX=0.5;exitY=1;exitDx=0;exitDy=0;entryX=0;entryY=0.5;entryDx=0;entryDy=0;" edge="1" parent="1" source="hn4GBYcOYv5OI7Qw8IQw-3" target="hn4GBYcOYv5OI7Qw8IQw-6">
          <mxGeometry x="-1" relative="1" as="geometry">
            <mxPoint x="450" y="820" as="targetPoint" />
            <Array as="points">
              <mxPoint x="110" y="820" />
            </Array>
          </mxGeometry>
        </mxCell>
        <mxCell id="hn4GBYcOYv5OI7Qw8IQw-27" value="Có" style="edgeLabel;html=1;align=center;verticalAlign=middle;resizable=0;points=[];fontSize=15;" vertex="1" connectable="0" parent="hn4GBYcOYv5OI7Qw8IQw-14">
          <mxGeometry x="-0.8452" y="1" relative="1" as="geometry">
            <mxPoint x="9" y="-10" as="offset" />
          </mxGeometry>
        </mxCell>
        <mxCell id="0fxrD8gJ0K2vshcF0o1G-5" value="" style="edgeStyle=orthogonalEdgeStyle;html=1;verticalAlign=bottom;endArrow=open;endSize=8;strokeColor=#ff0000;rounded=0;exitX=1;exitY=0.5;exitDx=0;exitDy=0;entryX=0;entryY=0.5;entryDx=0;entryDy=0;" edge="1" parent="1" source="hn4GBYcOYv5OI7Qw8IQw-6" target="hn4GBYcOYv5OI7Qw8IQw-8">
          <mxGeometry relative="1" as="geometry">
            <mxPoint x="685" y="840" as="targetPoint" />
            <mxPoint x="685" y="780" as="sourcePoint" />
          </mxGeometry>
        </mxCell>
        <mxCell id="0fxrD8gJ0K2vshcF0o1G-10" value="Có" style="edgeStyle=orthogonalEdgeStyle;html=1;align=left;verticalAlign=bottom;endArrow=open;endSize=8;strokeColor=#ff0000;rounded=0;exitX=0.5;exitY=0;exitDx=0;exitDy=0;entryX=0.5;entryY=1;entryDx=0;entryDy=0;" edge="1" parent="1" source="hn4GBYcOYv5OI7Qw8IQw-8" target="hn4GBYcOYv5OI7Qw8IQw-9">
          <mxGeometry x="-1" relative="1" as="geometry">
            <mxPoint x="880" y="510" as="targetPoint" />
            <mxPoint x="779.9393939393942" y="509.969696969697" as="sourcePoint" />
            <mxPoint as="offset" />
          </mxGeometry>
        </mxCell>
        <mxCell id="0fxrD8gJ0K2vshcF0o1G-13" value="" style="edgeStyle=orthogonalEdgeStyle;html=1;verticalAlign=bottom;endArrow=open;endSize=8;strokeColor=#ff0000;rounded=0;entryX=1;entryY=0.5;entryDx=0;entryDy=0;exitX=1;exitY=0.5;exitDx=0;exitDy=0;" edge="1" parent="1" source="hn4GBYcOYv5OI7Qw8IQw-8" target="hn4GBYcOYv5OI7Qw8IQw-9">
          <mxGeometry relative="1" as="geometry">
            <mxPoint x="815" y="810" as="targetPoint" />
            <mxPoint x="815" y="750" as="sourcePoint" />
          </mxGeometry>
        </mxCell>
        <mxCell id="0fxrD8gJ0K2vshcF0o1G-19" value="" style="edgeStyle=orthogonalEdgeStyle;html=1;verticalAlign=bottom;endArrow=open;endSize=8;strokeColor=#ff0000;rounded=0;exitX=1;exitY=0.5;exitDx=0;exitDy=0;entryX=0;entryY=0.5;entryDx=0;entryDy=0;" edge="1" parent="1" source="9eBxYeqyI2t0_zf650n9-22" target="9eBxYeqyI2t0_zf650n9-30">
          <mxGeometry relative="1" as="geometry">
            <mxPoint x="265" y="400" as="targetPoint" />
            <mxPoint x="265" y="340" as="sourcePoint" />
          </mxGeometry>
        </mxCell>
        <mxCell id="0fxrD8gJ0K2vshcF0o1G-44" value="" style="edgeStyle=orthogonalEdgeStyle;html=1;verticalAlign=bottom;endArrow=open;endSize=8;strokeColor=#ff0000;rounded=0;exitX=1.002;exitY=0.487;exitDx=0;exitDy=0;exitPerimeter=0;entryX=0;entryY=0.5;entryDx=0;entryDy=0;startSize=7;" edge="1" parent="1" source="9eBxYeqyI2t0_zf650n9-24" target="9eBxYeqyI2t0_zf650n9-26">
          <mxGeometry relative="1" as="geometry">
            <mxPoint x="425" y="300" as="targetPoint" />
            <mxPoint x="425" y="240" as="sourcePoint" />
          </mxGeometry>
        </mxCell>
        <mxCell id="hn4GBYcOYv5OI7Qw8IQw-16" value="" style="edgeStyle=orthogonalEdgeStyle;html=1;verticalAlign=bottom;endArrow=open;endSize=8;strokeColor=#ff0000;rounded=0;fontSize=15;entryX=0.007;entryY=0.749;entryDx=0;entryDy=0;entryPerimeter=0;exitX=1;exitY=0.5;exitDx=0;exitDy=0;" edge="1" parent="1" source="hn4GBYcOYv5OI7Qw8IQw-15" target="hn4GBYcOYv5OI7Qw8IQw-21">
          <mxGeometry relative="1" as="geometry">
            <mxPoint x="500" y="460" as="targetPoint" />
            <mxPoint x="180.0000000000001" y="559" as="sourcePoint" />
            <Array as="points">
              <mxPoint x="430" y="550" />
              <mxPoint x="430" y="460" />
            </Array>
          </mxGeometry>
        </mxCell>
      </root>
    </mxGraphModel>
  </diagram>
  <diagram id="VEOsSVXb6RjRPHGMKFpH" name="ID 3.2">
    <mxGraphModel dx="2100" dy="1258" grid="1" gridSize="10" guides="1" tooltips="1" connect="1" arrows="1" fold="1" page="1" pageScale="1" pageWidth="827" pageHeight="1169" math="0" shadow="0">
      <root>
        <mxCell id="0" />
        <mxCell id="1" parent="0" />
        <mxCell id="qH7PsenUL3czsjNbgfgi-1" value="Chủ tạp hoá" style="swimlane;whiteSpace=wrap;html=1;fontSize=15;startSize=40;fillColor=#E6E6E6;" parent="1" vertex="1">
          <mxGeometry x="19" y="40" width="401" height="920" as="geometry" />
        </mxCell>
        <mxCell id="qH7PsenUL3czsjNbgfgi-2" value="" style="ellipse;html=1;shape=startState;fillColor=#000000;strokeColor=#ff0000;fontSize=15;" parent="qH7PsenUL3czsjNbgfgi-1" vertex="1">
          <mxGeometry x="85" y="70" width="30" height="30" as="geometry" />
        </mxCell>
        <mxCell id="qH7PsenUL3czsjNbgfgi-3" value="" style="edgeStyle=orthogonalEdgeStyle;html=1;verticalAlign=bottom;endArrow=open;endSize=8;strokeColor=#ff0000;rounded=0;fontSize=15;" parent="qH7PsenUL3czsjNbgfgi-1" source="qH7PsenUL3czsjNbgfgi-2" edge="1">
          <mxGeometry relative="1" as="geometry">
            <mxPoint x="100" y="140" as="targetPoint" />
          </mxGeometry>
        </mxCell>
        <mxCell id="qH7PsenUL3czsjNbgfgi-4" value="Chọn &quot;Sửa thông tin sản phẩm&quot;" style="rounded=1;whiteSpace=wrap;html=1;arcSize=40;fontColor=#000000;fillColor=#ffffc0;strokeColor=#ff0000;fontSize=15;" parent="qH7PsenUL3czsjNbgfgi-1" vertex="1">
          <mxGeometry x="30" y="140" width="140" height="40" as="geometry" />
        </mxCell>
        <mxCell id="qH7PsenUL3czsjNbgfgi-5" value="" style="edgeStyle=orthogonalEdgeStyle;html=1;verticalAlign=bottom;endArrow=open;endSize=8;strokeColor=#ff0000;rounded=0;fontSize=15;" parent="qH7PsenUL3czsjNbgfgi-1" source="qH7PsenUL3czsjNbgfgi-4" edge="1">
          <mxGeometry relative="1" as="geometry">
            <mxPoint x="100" y="220" as="targetPoint" />
          </mxGeometry>
        </mxCell>
        <mxCell id="qH7PsenUL3czsjNbgfgi-6" value="&lt;font style=&quot;font-size: 15px;&quot;&gt;Nhập?&lt;/font&gt;" style="rhombus;whiteSpace=wrap;html=1;fontColor=#000000;fillColor=#ffffc0;strokeColor=#ff0000;fontSize=15;" parent="qH7PsenUL3czsjNbgfgi-1" vertex="1">
          <mxGeometry x="60" y="220" width="80" height="40" as="geometry" />
        </mxCell>
        <mxCell id="qH7PsenUL3czsjNbgfgi-7" value="Không" style="edgeStyle=orthogonalEdgeStyle;html=1;align=left;verticalAlign=bottom;endArrow=open;endSize=8;strokeColor=#ff0000;rounded=0;fontSize=15;" parent="qH7PsenUL3czsjNbgfgi-1" source="qH7PsenUL3czsjNbgfgi-6" edge="1">
          <mxGeometry x="-1" relative="1" as="geometry">
            <mxPoint x="240" y="240" as="targetPoint" />
          </mxGeometry>
        </mxCell>
        <mxCell id="qH7PsenUL3czsjNbgfgi-8" value="Có" style="edgeStyle=orthogonalEdgeStyle;html=1;align=left;verticalAlign=top;endArrow=open;endSize=8;strokeColor=#ff0000;rounded=0;fontSize=15;entryX=0.5;entryY=0;entryDx=0;entryDy=0;" parent="qH7PsenUL3czsjNbgfgi-1" source="qH7PsenUL3czsjNbgfgi-6" target="qH7PsenUL3czsjNbgfgi-9" edge="1">
          <mxGeometry x="-1" relative="1" as="geometry">
            <mxPoint x="100" y="320" as="targetPoint" />
          </mxGeometry>
        </mxCell>
        <mxCell id="qH7PsenUL3czsjNbgfgi-9" value="Nhập tên sản phẩm trên thanh tìm kiếm" style="rounded=1;whiteSpace=wrap;html=1;arcSize=40;fontColor=#000000;fillColor=#ffffc0;strokeColor=#ff0000;fontSize=15;" parent="qH7PsenUL3czsjNbgfgi-1" vertex="1">
          <mxGeometry x="30" y="300" width="140" height="60" as="geometry" />
        </mxCell>
        <mxCell id="qH7PsenUL3czsjNbgfgi-10" value="Quét mã sản phẩm" style="rounded=1;whiteSpace=wrap;html=1;arcSize=40;fontColor=#000000;fillColor=#ffffc0;strokeColor=#ff0000;fontSize=15;" parent="qH7PsenUL3czsjNbgfgi-1" vertex="1">
          <mxGeometry x="240" y="220" width="120" height="40" as="geometry" />
        </mxCell>
        <mxCell id="NRmThCsGCtYamKNgo9br-4" value="Sửa ảnh?" style="rhombus;whiteSpace=wrap;html=1;fontColor=#000000;fillColor=#ffffc0;strokeColor=#ff0000;fontSize=15;" parent="qH7PsenUL3czsjNbgfgi-1" vertex="1">
          <mxGeometry x="55" y="415" width="90" height="50" as="geometry" />
        </mxCell>
        <mxCell id="NRmThCsGCtYamKNgo9br-5" value="Có" style="edgeStyle=orthogonalEdgeStyle;html=1;align=left;verticalAlign=bottom;endArrow=open;endSize=8;strokeColor=#ff0000;rounded=0;entryX=0;entryY=0.5;entryDx=0;entryDy=0;fontSize=15;" parent="qH7PsenUL3czsjNbgfgi-1" source="NRmThCsGCtYamKNgo9br-4" target="NRmThCsGCtYamKNgo9br-10" edge="1">
          <mxGeometry x="-1" relative="1" as="geometry">
            <mxPoint x="240" y="440" as="targetPoint" />
          </mxGeometry>
        </mxCell>
        <mxCell id="NRmThCsGCtYamKNgo9br-6" value="Không" style="edgeStyle=orthogonalEdgeStyle;html=1;align=left;verticalAlign=top;endArrow=open;endSize=8;strokeColor=#ff0000;rounded=0;entryX=0.5;entryY=0;entryDx=0;entryDy=0;fontSize=15;" parent="qH7PsenUL3czsjNbgfgi-1" source="NRmThCsGCtYamKNgo9br-4" target="NRmThCsGCtYamKNgo9br-29" edge="1">
          <mxGeometry x="-1" relative="1" as="geometry">
            <mxPoint x="100" y="520" as="targetPoint" />
          </mxGeometry>
        </mxCell>
        <mxCell id="NRmThCsGCtYamKNgo9br-10" value="Cách thêm" style="rhombus;whiteSpace=wrap;html=1;fontColor=#000000;fillColor=#ffffc0;strokeColor=#ff0000;fontSize=15;" parent="qH7PsenUL3czsjNbgfgi-1" vertex="1">
          <mxGeometry x="240" y="420" width="90" height="40" as="geometry" />
        </mxCell>
        <mxCell id="NRmThCsGCtYamKNgo9br-12" value="" style="edgeStyle=orthogonalEdgeStyle;html=1;align=left;verticalAlign=top;endArrow=open;endSize=8;strokeColor=#ff0000;rounded=0;entryX=0.785;entryY=0;entryDx=0;entryDy=0;entryPerimeter=0;fontSize=15;" parent="qH7PsenUL3czsjNbgfgi-1" source="NRmThCsGCtYamKNgo9br-10" target="NRmThCsGCtYamKNgo9br-16" edge="1">
          <mxGeometry x="-1" relative="1" as="geometry">
            <mxPoint x="301" y="520" as="targetPoint" />
            <Array as="points">
              <mxPoint x="285" y="490" />
              <mxPoint x="221" y="490" />
              <mxPoint x="221" y="514" />
            </Array>
          </mxGeometry>
        </mxCell>
        <mxCell id="NRmThCsGCtYamKNgo9br-13" value="Quét mã sản phẩm" style="rounded=1;whiteSpace=wrap;html=1;arcSize=40;fontColor=#000000;fillColor=#ffffc0;strokeColor=#ff0000;fontSize=15;" parent="qH7PsenUL3czsjNbgfgi-1" vertex="1">
          <mxGeometry x="261" y="513.75" width="134.5" height="40" as="geometry" />
        </mxCell>
        <mxCell id="NRmThCsGCtYamKNgo9br-16" value="Thêm ảnh sản phẩm từ thư viện ảnh&amp;nbsp;" style="rounded=1;whiteSpace=wrap;html=1;arcSize=40;fontColor=#000000;fillColor=#ffffc0;strokeColor=#ff0000;fontSize=15;" parent="qH7PsenUL3czsjNbgfgi-1" vertex="1">
          <mxGeometry x="111" y="513.75" width="141" height="40" as="geometry" />
        </mxCell>
        <mxCell id="NRmThCsGCtYamKNgo9br-26" value="" style="edgeStyle=orthogonalEdgeStyle;html=1;align=left;verticalAlign=top;endArrow=open;endSize=8;strokeColor=#ff0000;rounded=0;fontSize=15;exitX=0.5;exitY=1;exitDx=0;exitDy=0;entryX=0.567;entryY=0.009;entryDx=0;entryDy=0;entryPerimeter=0;" parent="qH7PsenUL3czsjNbgfgi-1" source="NRmThCsGCtYamKNgo9br-10" target="NRmThCsGCtYamKNgo9br-13" edge="1">
          <mxGeometry x="-1" relative="1" as="geometry">
            <mxPoint x="342" y="510" as="targetPoint" />
            <mxPoint x="280" y="460" as="sourcePoint" />
            <Array as="points">
              <mxPoint x="285" y="490" />
              <mxPoint x="337" y="490" />
              <mxPoint x="337" y="514" />
            </Array>
          </mxGeometry>
        </mxCell>
        <mxCell id="NRmThCsGCtYamKNgo9br-29" value="Sửa giá bán?" style="rhombus;whiteSpace=wrap;html=1;fontColor=#000000;fillColor=#ffffc0;strokeColor=#ff0000;fontSize=15;" parent="qH7PsenUL3czsjNbgfgi-1" vertex="1">
          <mxGeometry x="45" y="595" width="110" height="60" as="geometry" />
        </mxCell>
        <mxCell id="NRmThCsGCtYamKNgo9br-30" value="Có" style="edgeStyle=orthogonalEdgeStyle;html=1;align=left;verticalAlign=bottom;endArrow=open;endSize=8;strokeColor=#ff0000;rounded=0;fontSize=15;entryX=0;entryY=0.5;entryDx=0;entryDy=0;" parent="qH7PsenUL3czsjNbgfgi-1" source="NRmThCsGCtYamKNgo9br-29" target="NRmThCsGCtYamKNgo9br-34" edge="1">
          <mxGeometry x="-1" relative="1" as="geometry">
            <mxPoint x="240" y="620" as="targetPoint" />
          </mxGeometry>
        </mxCell>
        <mxCell id="NRmThCsGCtYamKNgo9br-34" value="Xoá giá bán cũ" style="rounded=1;whiteSpace=wrap;html=1;arcSize=40;fontColor=#000000;fillColor=#ffffc0;strokeColor=#ff0000;fontSize=15;" parent="qH7PsenUL3czsjNbgfgi-1" vertex="1">
          <mxGeometry x="240" y="605" width="120" height="40" as="geometry" />
        </mxCell>
        <mxCell id="NRmThCsGCtYamKNgo9br-35" value="Nhập giá bán mới" style="rounded=1;whiteSpace=wrap;html=1;arcSize=40;fontColor=#000000;fillColor=#ffffc0;strokeColor=#ff0000;fontSize=15;" parent="qH7PsenUL3czsjNbgfgi-1" vertex="1">
          <mxGeometry x="240" y="700" width="120" height="40" as="geometry" />
        </mxCell>
        <mxCell id="NRmThCsGCtYamKNgo9br-36" value="" style="edgeStyle=orthogonalEdgeStyle;html=1;align=left;verticalAlign=top;endArrow=open;endSize=8;strokeColor=#ff0000;rounded=0;fontSize=15;exitX=0.507;exitY=1.004;exitDx=0;exitDy=0;exitPerimeter=0;" parent="qH7PsenUL3czsjNbgfgi-1" source="NRmThCsGCtYamKNgo9br-34" edge="1">
          <mxGeometry x="-1" relative="1" as="geometry">
            <mxPoint x="300.71000000000004" y="700" as="targetPoint" />
            <mxPoint x="300.71000000000004" y="640" as="sourcePoint" />
          </mxGeometry>
        </mxCell>
        <mxCell id="qH7PsenUL3czsjNbgfgi-15" value="Hệ thống" style="swimlane;whiteSpace=wrap;html=1;fontSize=15;startSize=40;fillColor=#E6E6E6;" parent="1" vertex="1">
          <mxGeometry x="420" y="40" width="430" height="920" as="geometry" />
        </mxCell>
        <mxCell id="qH7PsenUL3czsjNbgfgi-16" style="edgeStyle=orthogonalEdgeStyle;rounded=0;orthogonalLoop=1;jettySize=auto;html=1;entryX=0.5;entryY=0;entryDx=0;entryDy=0;strokeColor=#FF3333;fontSize=15;" parent="qH7PsenUL3czsjNbgfgi-15" source="qH7PsenUL3czsjNbgfgi-17" target="qH7PsenUL3czsjNbgfgi-18" edge="1">
          <mxGeometry relative="1" as="geometry">
            <Array as="points">
              <mxPoint x="100" y="280" />
              <mxPoint x="100" y="280" />
            </Array>
          </mxGeometry>
        </mxCell>
        <mxCell id="qH7PsenUL3czsjNbgfgi-17" value="Điện thoại quét &lt;br style=&quot;font-size: 15px;&quot;&gt;lấy mã và hiển thị &lt;br style=&quot;font-size: 15px;&quot;&gt;thông tin sản phẩm" style="rounded=1;whiteSpace=wrap;html=1;arcSize=40;fontColor=#000000;fillColor=#ffffc0;strokeColor=#ff0000;fontSize=15;" parent="qH7PsenUL3czsjNbgfgi-15" vertex="1">
          <mxGeometry x="21.25" y="213.75" width="157.5" height="52.5" as="geometry" />
        </mxCell>
        <mxCell id="qH7PsenUL3czsjNbgfgi-18" value="Có trong &lt;br style=&quot;font-size: 15px;&quot;&gt;hệ thống?" style="rhombus;whiteSpace=wrap;html=1;fontColor=#000000;fillColor=#ffffc0;strokeColor=#ff0000;fontSize=15;" parent="qH7PsenUL3czsjNbgfgi-15" vertex="1">
          <mxGeometry x="50" y="300" width="100" height="60" as="geometry" />
        </mxCell>
        <mxCell id="qH7PsenUL3czsjNbgfgi-19" value="Không" style="edgeStyle=orthogonalEdgeStyle;html=1;align=left;verticalAlign=bottom;endArrow=open;endSize=8;strokeColor=#ff0000;rounded=0;fontSize=15;entryX=0;entryY=0.5;entryDx=0;entryDy=0;" parent="qH7PsenUL3czsjNbgfgi-15" source="qH7PsenUL3czsjNbgfgi-18" target="qH7PsenUL3czsjNbgfgi-21" edge="1">
          <mxGeometry x="-1" relative="1" as="geometry">
            <mxPoint x="220" y="340" as="targetPoint" />
            <Array as="points" />
          </mxGeometry>
        </mxCell>
        <mxCell id="qH7PsenUL3czsjNbgfgi-21" value="Hiển thị thông báo “Không có thông tin sản phẩm. Kiểm tra lại”" style="rounded=1;whiteSpace=wrap;html=1;arcSize=40;fontColor=#000000;fillColor=#ffffc0;strokeColor=#ff0000;fontSize=15;" parent="qH7PsenUL3czsjNbgfgi-15" vertex="1">
          <mxGeometry x="220" y="300" width="170" height="60" as="geometry" />
        </mxCell>
        <mxCell id="NRmThCsGCtYamKNgo9br-14" value="Điện thoại quét &lt;br style=&quot;font-size: 15px;&quot;&gt;lấy mã và hiển thị &lt;br style=&quot;font-size: 15px;&quot;&gt;thông tin sản phẩm" style="rounded=1;whiteSpace=wrap;html=1;arcSize=40;fontColor=#000000;fillColor=#ffffc0;strokeColor=#ff0000;fontSize=15;" parent="qH7PsenUL3czsjNbgfgi-15" vertex="1">
          <mxGeometry x="35" y="507.5" width="175" height="52.5" as="geometry" />
        </mxCell>
        <mxCell id="NRmThCsGCtYamKNgo9br-1" value="" style="ellipse;html=1;shape=endState;fillColor=#000000;strokeColor=#ff0000;fontSize=15;" parent="qH7PsenUL3czsjNbgfgi-15" vertex="1">
          <mxGeometry x="270" y="440" width="30" height="30" as="geometry" />
        </mxCell>
        <mxCell id="NRmThCsGCtYamKNgo9br-3" style="edgeStyle=orthogonalEdgeStyle;rounded=0;orthogonalLoop=1;jettySize=auto;html=1;entryX=0.5;entryY=0;entryDx=0;entryDy=0;strokeColor=#FF3333;fontSize=15;" parent="qH7PsenUL3czsjNbgfgi-15" source="qH7PsenUL3czsjNbgfgi-21" target="NRmThCsGCtYamKNgo9br-1" edge="1">
          <mxGeometry relative="1" as="geometry">
            <Array as="points">
              <mxPoint x="285" y="380" />
              <mxPoint x="285" y="380" />
            </Array>
          </mxGeometry>
        </mxCell>
        <mxCell id="NRmThCsGCtYamKNgo9br-48" value="Lưu thông tin &lt;br style=&quot;font-size: 15px;&quot;&gt;sản phẩm" style="rounded=1;whiteSpace=wrap;html=1;arcSize=40;fontColor=#000000;fillColor=#ffffc0;strokeColor=#ff0000;fontSize=15;" parent="qH7PsenUL3czsjNbgfgi-15" vertex="1">
          <mxGeometry x="40" y="700" width="120" height="40" as="geometry" />
        </mxCell>
        <mxCell id="NRmThCsGCtYamKNgo9br-50" value="Thành công?" style="rhombus;whiteSpace=wrap;html=1;fontColor=#000000;fillColor=#ffffc0;strokeColor=#ff0000;fontSize=15;" parent="qH7PsenUL3czsjNbgfgi-15" vertex="1">
          <mxGeometry x="241.25" y="695" width="87.5" height="50" as="geometry" />
        </mxCell>
        <mxCell id="NRmThCsGCtYamKNgo9br-51" value="Có" style="edgeStyle=orthogonalEdgeStyle;html=1;align=left;verticalAlign=bottom;endArrow=open;endSize=8;strokeColor=#ff0000;rounded=0;entryX=0.5;entryY=1;entryDx=0;entryDy=0;fontSize=15;" parent="qH7PsenUL3czsjNbgfgi-15" source="NRmThCsGCtYamKNgo9br-50" target="NRmThCsGCtYamKNgo9br-1" edge="1">
          <mxGeometry x="-1" relative="1" as="geometry">
            <mxPoint x="280" y="470" as="targetPoint" />
            <Array as="points" />
          </mxGeometry>
        </mxCell>
        <mxCell id="NRmThCsGCtYamKNgo9br-52" value="Không" style="edgeStyle=orthogonalEdgeStyle;html=1;align=left;verticalAlign=top;endArrow=open;endSize=8;strokeColor=#ff0000;rounded=0;fontSize=15;entryX=0.555;entryY=-0.003;entryDx=0;entryDy=0;entryPerimeter=0;" parent="qH7PsenUL3czsjNbgfgi-15" source="NRmThCsGCtYamKNgo9br-50" target="NRmThCsGCtYamKNgo9br-54" edge="1">
          <mxGeometry x="-1" relative="1" as="geometry">
            <mxPoint x="285" y="800" as="targetPoint" />
            <Array as="points" />
          </mxGeometry>
        </mxCell>
        <mxCell id="NRmThCsGCtYamKNgo9br-53" value="" style="edgeStyle=orthogonalEdgeStyle;html=1;align=left;verticalAlign=top;endArrow=open;endSize=8;strokeColor=#ff0000;rounded=0;entryX=0;entryY=0.5;entryDx=0;entryDy=0;fontSize=15;" parent="qH7PsenUL3czsjNbgfgi-15" target="NRmThCsGCtYamKNgo9br-50" edge="1">
          <mxGeometry x="-1" relative="1" as="geometry">
            <mxPoint x="240" y="719.71" as="targetPoint" />
            <mxPoint x="160" y="719.71" as="sourcePoint" />
          </mxGeometry>
        </mxCell>
        <mxCell id="NRmThCsGCtYamKNgo9br-54" value="Hiển thị thông báo “Có lỗi xảy ra”" style="rounded=1;whiteSpace=wrap;html=1;arcSize=40;fontColor=#000000;fillColor=#ffffc0;strokeColor=#ff0000;fontSize=15;" parent="qH7PsenUL3czsjNbgfgi-15" vertex="1">
          <mxGeometry x="210" y="800" width="135" height="40" as="geometry" />
        </mxCell>
        <mxCell id="NRmThCsGCtYamKNgo9br-55" value="" style="edgeStyle=orthogonalEdgeStyle;html=1;align=left;verticalAlign=bottom;endArrow=open;endSize=8;strokeColor=#ff0000;rounded=0;exitX=0.987;exitY=0.785;exitDx=0;exitDy=0;exitPerimeter=0;entryX=1;entryY=1;entryDx=0;entryDy=0;fontSize=15;" parent="qH7PsenUL3czsjNbgfgi-15" target="NRmThCsGCtYamKNgo9br-1" edge="1">
          <mxGeometry x="-1" relative="1" as="geometry">
            <mxPoint x="300" y="465" as="targetPoint" />
            <mxPoint x="343.43999999999994" y="830.4" as="sourcePoint" />
            <Array as="points">
              <mxPoint x="360" y="830" />
              <mxPoint x="360" y="466" />
            </Array>
          </mxGeometry>
        </mxCell>
        <mxCell id="qH7PsenUL3czsjNbgfgi-31" style="edgeStyle=orthogonalEdgeStyle;rounded=0;orthogonalLoop=1;jettySize=auto;html=1;strokeColor=#FF3333;fontSize=15;" parent="1" source="qH7PsenUL3czsjNbgfgi-10" target="qH7PsenUL3czsjNbgfgi-17" edge="1">
          <mxGeometry relative="1" as="geometry" />
        </mxCell>
        <mxCell id="qH7PsenUL3czsjNbgfgi-32" style="edgeStyle=orthogonalEdgeStyle;rounded=0;orthogonalLoop=1;jettySize=auto;html=1;entryX=0;entryY=0.5;entryDx=0;entryDy=0;strokeColor=#FF3333;fontSize=15;" parent="1" source="qH7PsenUL3czsjNbgfgi-9" target="qH7PsenUL3czsjNbgfgi-18" edge="1">
          <mxGeometry relative="1" as="geometry" />
        </mxCell>
        <mxCell id="qH7PsenUL3czsjNbgfgi-33" value="Có" style="edgeStyle=orthogonalEdgeStyle;html=1;align=left;verticalAlign=top;endArrow=open;endSize=8;strokeColor=#ff0000;rounded=0;fontSize=15;entryX=0.498;entryY=-0.007;entryDx=0;entryDy=0;entryPerimeter=0;" parent="1" source="qH7PsenUL3czsjNbgfgi-18" target="NRmThCsGCtYamKNgo9br-4" edge="1">
          <mxGeometry x="-1" relative="1" as="geometry">
            <mxPoint x="119" y="450" as="targetPoint" />
            <Array as="points">
              <mxPoint x="519" y="420" />
              <mxPoint x="119" y="420" />
            </Array>
          </mxGeometry>
        </mxCell>
        <mxCell id="NRmThCsGCtYamKNgo9br-15" style="edgeStyle=orthogonalEdgeStyle;rounded=0;orthogonalLoop=1;jettySize=auto;html=1;strokeColor=#FF3333;fontSize=15;" parent="1" source="NRmThCsGCtYamKNgo9br-13" target="NRmThCsGCtYamKNgo9br-14" edge="1">
          <mxGeometry relative="1" as="geometry" />
        </mxCell>
        <mxCell id="NRmThCsGCtYamKNgo9br-33" value="" style="edgeStyle=orthogonalEdgeStyle;html=1;align=left;verticalAlign=top;endArrow=open;endSize=8;strokeColor=#ff0000;rounded=0;entryX=0.5;entryY=0;entryDx=0;entryDy=0;exitX=0.5;exitY=1;exitDx=0;exitDy=0;fontSize=15;" parent="1" source="NRmThCsGCtYamKNgo9br-14" target="NRmThCsGCtYamKNgo9br-29" edge="1">
          <mxGeometry x="-1" relative="1" as="geometry">
            <mxPoint x="250" y="570" as="targetPoint" />
            <mxPoint x="309" y="510" as="sourcePoint" />
            <Array as="points">
              <mxPoint x="540" y="600" />
              <mxPoint x="540" y="620" />
              <mxPoint x="119" y="620" />
            </Array>
          </mxGeometry>
        </mxCell>
        <mxCell id="NRmThCsGCtYamKNgo9br-49" value="" style="edgeStyle=orthogonalEdgeStyle;html=1;align=left;verticalAlign=top;endArrow=open;endSize=8;strokeColor=#ff0000;rounded=0;entryX=0;entryY=0.5;entryDx=0;entryDy=0;fontSize=15;" parent="1" target="NRmThCsGCtYamKNgo9br-48" edge="1">
          <mxGeometry x="-1" relative="1" as="geometry">
            <mxPoint x="329.71000000000004" y="750" as="targetPoint" />
            <mxPoint x="380" y="760" as="sourcePoint" />
          </mxGeometry>
        </mxCell>
        <mxCell id="NRmThCsGCtYamKNgo9br-31" value="Không" style="edgeStyle=orthogonalEdgeStyle;html=1;align=left;verticalAlign=top;endArrow=open;endSize=8;strokeColor=#ff0000;rounded=0;entryX=0.91;entryY=0.206;entryDx=0;entryDy=0;entryPerimeter=0;fontSize=15;exitX=0.5;exitY=1;exitDx=0;exitDy=0;" parent="1" source="NRmThCsGCtYamKNgo9br-29" target="NRmThCsGCtYamKNgo9br-1" edge="1">
          <mxGeometry x="-1" relative="1" as="geometry">
            <mxPoint x="719.999999999998" y="486" as="targetPoint" />
            <mxPoint x="119.00000000000003" y="671" as="sourcePoint" />
            <Array as="points">
              <mxPoint x="119" y="901" />
              <mxPoint x="810" y="901" />
              <mxPoint x="810" y="486" />
            </Array>
          </mxGeometry>
        </mxCell>
      </root>
    </mxGraphModel>
  </diagram>
  <diagram id="aFKl4tK-3JkJ5JnerBlb" name="ID 3.3">
    <mxGraphModel dx="1500" dy="899" grid="1" gridSize="10" guides="1" tooltips="1" connect="1" arrows="1" fold="1" page="1" pageScale="1" pageWidth="827" pageHeight="1169" math="0" shadow="0">
      <root>
        <mxCell id="0" />
        <mxCell id="1" parent="0" />
        <mxCell id="R4SUF6ZZnp_RUxas38Q7-1" value="Chủ tạp hoá" style="swimlane;whiteSpace=wrap;html=1;fontSize=15;startSize=40;fillColor=#E6E6E6;" parent="1" vertex="1">
          <mxGeometry x="19" y="40" width="401" height="680" as="geometry" />
        </mxCell>
        <mxCell id="R4SUF6ZZnp_RUxas38Q7-2" value="" style="ellipse;html=1;shape=startState;fillColor=#000000;strokeColor=#ff0000;fontSize=15;" parent="R4SUF6ZZnp_RUxas38Q7-1" vertex="1">
          <mxGeometry x="85" y="70" width="30" height="30" as="geometry" />
        </mxCell>
        <mxCell id="R4SUF6ZZnp_RUxas38Q7-3" value="" style="edgeStyle=orthogonalEdgeStyle;html=1;verticalAlign=bottom;endArrow=open;endSize=8;strokeColor=#ff0000;rounded=0;fontSize=15;" parent="R4SUF6ZZnp_RUxas38Q7-1" source="R4SUF6ZZnp_RUxas38Q7-2" edge="1">
          <mxGeometry relative="1" as="geometry">
            <mxPoint x="100" y="140" as="targetPoint" />
          </mxGeometry>
        </mxCell>
        <mxCell id="R4SUF6ZZnp_RUxas38Q7-4" value="Chọn &quot;Xoá thông tin sản phẩm&quot;" style="rounded=1;whiteSpace=wrap;html=1;arcSize=40;fontColor=#000000;fillColor=#ffffc0;strokeColor=#ff0000;fontSize=15;" parent="R4SUF6ZZnp_RUxas38Q7-1" vertex="1">
          <mxGeometry x="30" y="140" width="140" height="40" as="geometry" />
        </mxCell>
        <mxCell id="R4SUF6ZZnp_RUxas38Q7-6" value="&lt;font style=&quot;font-size: 15px;&quot;&gt;Nhập?&lt;/font&gt;" style="rhombus;whiteSpace=wrap;html=1;fontColor=#000000;fillColor=#ffffc0;strokeColor=#ff0000;fontSize=15;" parent="R4SUF6ZZnp_RUxas38Q7-1" vertex="1">
          <mxGeometry x="60" y="220" width="80" height="40" as="geometry" />
        </mxCell>
        <mxCell id="R4SUF6ZZnp_RUxas38Q7-7" value="Không" style="edgeStyle=orthogonalEdgeStyle;html=1;align=left;verticalAlign=bottom;endArrow=open;endSize=8;strokeColor=#ff0000;rounded=0;fontSize=15;" parent="R4SUF6ZZnp_RUxas38Q7-1" source="R4SUF6ZZnp_RUxas38Q7-6" edge="1">
          <mxGeometry x="-1" relative="1" as="geometry">
            <mxPoint x="240" y="240" as="targetPoint" />
          </mxGeometry>
        </mxCell>
        <mxCell id="R4SUF6ZZnp_RUxas38Q7-8" value="Có" style="edgeStyle=orthogonalEdgeStyle;html=1;align=left;verticalAlign=top;endArrow=open;endSize=8;strokeColor=#ff0000;rounded=0;fontSize=15;entryX=0.5;entryY=0;entryDx=0;entryDy=0;" parent="R4SUF6ZZnp_RUxas38Q7-1" source="R4SUF6ZZnp_RUxas38Q7-6" target="R4SUF6ZZnp_RUxas38Q7-9" edge="1">
          <mxGeometry x="-1" relative="1" as="geometry">
            <mxPoint x="100" y="320" as="targetPoint" />
          </mxGeometry>
        </mxCell>
        <mxCell id="R4SUF6ZZnp_RUxas38Q7-9" value="Nhập tên sản phẩm trên thanh tìm kiếm" style="rounded=1;whiteSpace=wrap;html=1;arcSize=40;fontColor=#000000;fillColor=#ffffc0;strokeColor=#ff0000;fontSize=15;" parent="R4SUF6ZZnp_RUxas38Q7-1" vertex="1">
          <mxGeometry x="32.5" y="300" width="135" height="60" as="geometry" />
        </mxCell>
        <mxCell id="R4SUF6ZZnp_RUxas38Q7-10" value="Quét mã sản phẩm" style="rounded=1;whiteSpace=wrap;html=1;arcSize=40;fontColor=#000000;fillColor=#ffffc0;strokeColor=#ff0000;fontSize=15;" parent="R4SUF6ZZnp_RUxas38Q7-1" vertex="1">
          <mxGeometry x="220" y="220" width="140" height="40" as="geometry" />
        </mxCell>
        <mxCell id="R4SUF6ZZnp_RUxas38Q7-47" value="Chọn &lt;br style=&quot;font-size: 15px;&quot;&gt;&quot;Xoá sản phẩm&quot;" style="rounded=1;whiteSpace=wrap;html=1;arcSize=40;fontColor=#000000;fillColor=#ffffc0;strokeColor=#ff0000;fontSize=15;" parent="R4SUF6ZZnp_RUxas38Q7-1" vertex="1">
          <mxGeometry x="32.5" y="420" width="137.5" height="40" as="geometry" />
        </mxCell>
        <mxCell id="R4SUF6ZZnp_RUxas38Q7-40" style="edgeStyle=orthogonalEdgeStyle;rounded=0;orthogonalLoop=1;jettySize=auto;html=1;strokeColor=#FF3333;fontSize=15;" parent="1" source="R4SUF6ZZnp_RUxas38Q7-10" edge="1">
          <mxGeometry relative="1" as="geometry">
            <mxPoint x="452.5000000000002" y="280" as="targetPoint" />
          </mxGeometry>
        </mxCell>
        <mxCell id="R4SUF6ZZnp_RUxas38Q7-41" style="edgeStyle=orthogonalEdgeStyle;rounded=0;orthogonalLoop=1;jettySize=auto;html=1;entryX=0;entryY=0.5;entryDx=0;entryDy=0;strokeColor=#FF3333;fontSize=15;" parent="1" source="R4SUF6ZZnp_RUxas38Q7-9" edge="1">
          <mxGeometry relative="1" as="geometry">
            <mxPoint x="481.2500000000002" y="370" as="targetPoint" />
          </mxGeometry>
        </mxCell>
        <mxCell id="R4SUF6ZZnp_RUxas38Q7-42" value="Có" style="edgeStyle=orthogonalEdgeStyle;html=1;align=left;verticalAlign=top;endArrow=open;endSize=8;strokeColor=#ff0000;rounded=0;entryX=0.5;entryY=0;entryDx=0;entryDy=0;fontSize=15;" parent="1" edge="1">
          <mxGeometry x="-1" relative="1" as="geometry">
            <mxPoint x="119" y="460" as="targetPoint" />
            <Array as="points">
              <mxPoint x="531" y="420" />
              <mxPoint x="119" y="420" />
            </Array>
            <mxPoint x="531.2857142857144" y="399.9785714285713" as="sourcePoint" />
          </mxGeometry>
        </mxCell>
        <mxCell id="R4SUF6ZZnp_RUxas38Q7-51" value="" style="edgeStyle=orthogonalEdgeStyle;html=1;verticalAlign=bottom;endArrow=open;endSize=8;strokeColor=#ff0000;rounded=0;fontSize=15;" parent="1" edge="1">
          <mxGeometry relative="1" as="geometry">
            <mxPoint x="119" y="260" as="targetPoint" />
            <mxPoint x="119" y="220" as="sourcePoint" />
          </mxGeometry>
        </mxCell>
        <mxCell id="R4SUF6ZZnp_RUxas38Q7-52" value="" style="edgeStyle=orthogonalEdgeStyle;html=1;verticalAlign=bottom;endArrow=open;endSize=8;strokeColor=#ff0000;rounded=0;fontSize=15;entryX=0;entryY=0.5;entryDx=0;entryDy=0;" parent="1" edge="1">
          <mxGeometry relative="1" as="geometry">
            <mxPoint x="456.8800000000001" y="480" as="targetPoint" />
            <mxPoint x="190" y="480" as="sourcePoint" />
          </mxGeometry>
        </mxCell>
        <mxCell id="R4SUF6ZZnp_RUxas38Q7-93" value="Hệ thống" style="swimlane;whiteSpace=wrap;html=1;fontSize=15;startSize=40;fillColor=#E6E6E6;" parent="1" vertex="1">
          <mxGeometry x="420" y="40" width="420" height="680" as="geometry" />
        </mxCell>
        <mxCell id="R4SUF6ZZnp_RUxas38Q7-94" style="edgeStyle=orthogonalEdgeStyle;rounded=0;orthogonalLoop=1;jettySize=auto;html=1;entryX=0.5;entryY=0;entryDx=0;entryDy=0;strokeColor=#FF3333;fontSize=15;" parent="R4SUF6ZZnp_RUxas38Q7-93" source="R4SUF6ZZnp_RUxas38Q7-95" target="R4SUF6ZZnp_RUxas38Q7-96" edge="1">
          <mxGeometry relative="1" as="geometry">
            <Array as="points">
              <mxPoint x="111" y="290" />
              <mxPoint x="111" y="290" />
            </Array>
          </mxGeometry>
        </mxCell>
        <mxCell id="R4SUF6ZZnp_RUxas38Q7-95" value="Điện thoại quét &lt;br style=&quot;font-size: 15px;&quot;&gt;lấy mã và hiển thị &lt;br style=&quot;font-size: 15px;&quot;&gt;thông tin sản phẩm" style="rounded=1;whiteSpace=wrap;html=1;arcSize=40;fontColor=#000000;fillColor=#ffffc0;strokeColor=#ff0000;fontSize=15;" parent="R4SUF6ZZnp_RUxas38Q7-93" vertex="1">
          <mxGeometry x="32.5" y="215" width="157.5" height="50" as="geometry" />
        </mxCell>
        <mxCell id="R4SUF6ZZnp_RUxas38Q7-96" value="Có trong &lt;br style=&quot;font-size: 15px;&quot;&gt;hệ thống?" style="rhombus;whiteSpace=wrap;html=1;fontColor=#000000;fillColor=#ffffc0;strokeColor=#ff0000;fontSize=15;" parent="R4SUF6ZZnp_RUxas38Q7-93" vertex="1">
          <mxGeometry x="61.25" y="300" width="100" height="60" as="geometry" />
        </mxCell>
        <mxCell id="R4SUF6ZZnp_RUxas38Q7-97" value="Không" style="edgeStyle=orthogonalEdgeStyle;html=1;align=left;verticalAlign=bottom;endArrow=open;endSize=8;strokeColor=#ff0000;rounded=0;fontSize=15;entryX=0;entryY=0.5;entryDx=0;entryDy=0;" parent="R4SUF6ZZnp_RUxas38Q7-93" source="R4SUF6ZZnp_RUxas38Q7-96" target="R4SUF6ZZnp_RUxas38Q7-98" edge="1">
          <mxGeometry x="-1" relative="1" as="geometry">
            <mxPoint x="220" y="340" as="targetPoint" />
            <Array as="points" />
          </mxGeometry>
        </mxCell>
        <mxCell id="R4SUF6ZZnp_RUxas38Q7-98" value="Hiển thị thông báo “Không có thông tin sản phẩm. Kiểm tra lại”" style="rounded=1;whiteSpace=wrap;html=1;arcSize=40;fontColor=#000000;fillColor=#ffffc0;strokeColor=#ff0000;fontSize=15;" parent="R4SUF6ZZnp_RUxas38Q7-93" vertex="1">
          <mxGeometry x="220" y="300" width="170" height="60" as="geometry" />
        </mxCell>
        <mxCell id="R4SUF6ZZnp_RUxas38Q7-99" value="" style="ellipse;html=1;shape=endState;fillColor=#000000;strokeColor=#ff0000;fontSize=15;" parent="R4SUF6ZZnp_RUxas38Q7-93" vertex="1">
          <mxGeometry x="270" y="440" width="30" height="30" as="geometry" />
        </mxCell>
        <mxCell id="R4SUF6ZZnp_RUxas38Q7-100" style="edgeStyle=orthogonalEdgeStyle;rounded=0;orthogonalLoop=1;jettySize=auto;html=1;entryX=0.5;entryY=0;entryDx=0;entryDy=0;strokeColor=#FF3333;fontSize=15;" parent="R4SUF6ZZnp_RUxas38Q7-93" source="R4SUF6ZZnp_RUxas38Q7-98" target="R4SUF6ZZnp_RUxas38Q7-99" edge="1">
          <mxGeometry relative="1" as="geometry">
            <Array as="points">
              <mxPoint x="285" y="380" />
              <mxPoint x="285" y="380" />
            </Array>
          </mxGeometry>
        </mxCell>
        <mxCell id="R4SUF6ZZnp_RUxas38Q7-101" value="Sản phẩm được xoá khỏi hệ thống" style="rounded=1;whiteSpace=wrap;html=1;arcSize=40;fontColor=#000000;fillColor=#ffffc0;strokeColor=#ff0000;fontSize=15;" parent="R4SUF6ZZnp_RUxas38Q7-93" vertex="1">
          <mxGeometry x="36.88" y="420" width="153.12" height="40" as="geometry" />
        </mxCell>
        <mxCell id="R4SUF6ZZnp_RUxas38Q7-102" value="&lt;font style=&quot;font-size: 15px;&quot;&gt;Thành công?&lt;/font&gt;" style="rhombus;whiteSpace=wrap;html=1;fontColor=#000000;fillColor=#ffffc0;strokeColor=#ff0000;fontSize=15;" parent="R4SUF6ZZnp_RUxas38Q7-93" vertex="1">
          <mxGeometry x="63.44" y="500" width="100" height="50" as="geometry" />
        </mxCell>
        <mxCell id="R4SUF6ZZnp_RUxas38Q7-103" value="Có" style="edgeStyle=orthogonalEdgeStyle;html=1;align=left;verticalAlign=bottom;endArrow=open;endSize=8;strokeColor=#ff0000;rounded=0;entryX=0.5;entryY=1;entryDx=0;entryDy=0;fontSize=15;" parent="R4SUF6ZZnp_RUxas38Q7-93" source="R4SUF6ZZnp_RUxas38Q7-102" target="R4SUF6ZZnp_RUxas38Q7-99" edge="1">
          <mxGeometry x="-1" relative="1" as="geometry">
            <mxPoint x="250" y="520" as="targetPoint" />
          </mxGeometry>
        </mxCell>
        <mxCell id="R4SUF6ZZnp_RUxas38Q7-104" value="" style="edgeStyle=orthogonalEdgeStyle;html=1;verticalAlign=bottom;endArrow=open;endSize=8;strokeColor=#ff0000;rounded=0;fontSize=15;entryX=0.5;entryY=0;entryDx=0;entryDy=0;exitX=0.5;exitY=1;exitDx=0;exitDy=0;" parent="R4SUF6ZZnp_RUxas38Q7-93" source="R4SUF6ZZnp_RUxas38Q7-101" target="R4SUF6ZZnp_RUxas38Q7-102" edge="1">
          <mxGeometry relative="1" as="geometry">
            <mxPoint x="47" y="450" as="targetPoint" />
            <mxPoint x="-230" y="450" as="sourcePoint" />
          </mxGeometry>
        </mxCell>
        <mxCell id="R4SUF6ZZnp_RUxas38Q7-105" value="Hiển thị thông báo “Có lỗi xảy ra”" style="rounded=1;whiteSpace=wrap;html=1;arcSize=40;fontColor=#000000;fillColor=#ffffc0;strokeColor=#ff0000;fontSize=15;" parent="R4SUF6ZZnp_RUxas38Q7-93" vertex="1">
          <mxGeometry x="38.44" y="600" width="150" height="40" as="geometry" />
        </mxCell>
        <mxCell id="R4SUF6ZZnp_RUxas38Q7-106" value="" style="edgeStyle=orthogonalEdgeStyle;html=1;verticalAlign=bottom;endArrow=open;endSize=8;strokeColor=#ff0000;rounded=0;fontSize=15;entryX=1;entryY=0.5;entryDx=0;entryDy=0;exitX=1;exitY=0.5;exitDx=0;exitDy=0;" parent="R4SUF6ZZnp_RUxas38Q7-93" source="R4SUF6ZZnp_RUxas38Q7-105" target="R4SUF6ZZnp_RUxas38Q7-99" edge="1">
          <mxGeometry relative="1" as="geometry">
            <mxPoint x="121" y="510" as="targetPoint" />
            <mxPoint x="121" y="470" as="sourcePoint" />
            <Array as="points">
              <mxPoint x="320" y="620" />
              <mxPoint x="320" y="455" />
            </Array>
          </mxGeometry>
        </mxCell>
        <mxCell id="R4SUF6ZZnp_RUxas38Q7-107" value="" style="edgeStyle=orthogonalEdgeStyle;html=1;verticalAlign=bottom;endArrow=open;endSize=8;strokeColor=#ff0000;rounded=0;fontSize=15;entryX=0.5;entryY=0;entryDx=0;entryDy=0;exitX=0.5;exitY=1;exitDx=0;exitDy=0;" parent="R4SUF6ZZnp_RUxas38Q7-93" target="R4SUF6ZZnp_RUxas38Q7-105" edge="1">
          <mxGeometry relative="1" as="geometry">
            <mxPoint x="113.22000000000003" y="590" as="targetPoint" />
            <mxPoint x="113.22000000000003" y="550" as="sourcePoint" />
          </mxGeometry>
        </mxCell>
        <mxCell id="R4SUF6ZZnp_RUxas38Q7-108" value="Không" style="edgeLabel;html=1;align=center;verticalAlign=middle;resizable=0;points=[];fontSize=15;" parent="R4SUF6ZZnp_RUxas38Q7-107" vertex="1" connectable="0">
          <mxGeometry x="-0.1687" relative="1" as="geometry">
            <mxPoint as="offset" />
          </mxGeometry>
        </mxCell>
      </root>
    </mxGraphModel>
  </diagram>
</mxfile>
